G04 (created by PCBNEW (2013-jul-07)-stable) date Wed 22 Apr 2015 23:33:40 BST*
%MOIN*%
G04 Gerber Fmt 3.4, Leading zero omitted, Abs format*
%FSLAX34Y34*%
G01*
G70*
G90*
G04 APERTURE LIST*
%ADD10C,0.00590551*%
%ADD11C,0.0314961*%
%ADD12C,0.16*%
%ADD13C,0.0393701*%
%ADD14C,0.035*%
%ADD15C,0.01*%
G04 APERTURE END LIST*
G54D10*
G54D11*
X40551Y-23622D03*
G54D12*
X41437Y-21062D03*
G54D13*
X42716Y-18110D03*
G54D14*
X41425Y-22174D03*
X41880Y-23922D03*
X42667Y-21114D03*
G54D15*
X41437Y-22162D02*
X41425Y-22174D01*
X41437Y-21062D02*
X41437Y-22162D01*
X41425Y-23467D02*
X41880Y-23922D01*
X41425Y-22174D02*
X41425Y-23467D01*
X42716Y-21065D02*
X42667Y-21114D01*
X42716Y-18110D02*
X42716Y-21065D01*
G54D10*
G36*
X43037Y-23352D02*
X42322Y-23352D01*
X42219Y-23372D01*
X42132Y-23431D01*
X42113Y-23459D01*
X42113Y-21810D01*
X41437Y-21133D01*
X41366Y-21204D01*
X41366Y-21062D01*
X40689Y-20386D01*
X40542Y-20474D01*
X40385Y-20861D01*
X40388Y-21279D01*
X40542Y-21651D01*
X40689Y-21739D01*
X41366Y-21062D01*
X41366Y-21204D01*
X40760Y-21810D01*
X40848Y-21957D01*
X41235Y-22114D01*
X41653Y-22111D01*
X42025Y-21957D01*
X42113Y-21810D01*
X42113Y-23459D01*
X42073Y-23518D01*
X42053Y-23622D01*
X42053Y-24336D01*
X40328Y-24336D01*
X40328Y-23970D01*
X40469Y-24029D01*
X40631Y-24029D01*
X40781Y-23967D01*
X40896Y-23853D01*
X40958Y-23703D01*
X40958Y-23541D01*
X40896Y-23391D01*
X40782Y-23276D01*
X40632Y-23214D01*
X40470Y-23214D01*
X40328Y-23273D01*
X40328Y-22637D01*
X40308Y-22534D01*
X40249Y-22447D01*
X40162Y-22388D01*
X40059Y-22368D01*
X39836Y-22368D01*
X39836Y-18773D01*
X40551Y-18773D01*
X40654Y-18753D01*
X40741Y-18694D01*
X40800Y-18607D01*
X40820Y-18503D01*
X40820Y-17789D01*
X42405Y-17789D01*
X42337Y-17856D01*
X42269Y-18020D01*
X42269Y-18198D01*
X42337Y-18363D01*
X42416Y-18442D01*
X42416Y-20680D01*
X42331Y-20474D01*
X42184Y-20386D01*
X42113Y-20457D01*
X42113Y-20315D01*
X42025Y-20168D01*
X41638Y-20011D01*
X41220Y-20014D01*
X40848Y-20168D01*
X40760Y-20315D01*
X41437Y-20992D01*
X42113Y-20315D01*
X42113Y-20457D01*
X41507Y-21062D01*
X42184Y-21739D01*
X42331Y-21651D01*
X42409Y-21458D01*
X42425Y-21474D01*
X42582Y-21539D01*
X42751Y-21539D01*
X42907Y-21475D01*
X43027Y-21355D01*
X43037Y-21330D01*
X43037Y-23352D01*
X43037Y-23352D01*
G37*
G54D15*
X43037Y-23352D02*
X42322Y-23352D01*
X42219Y-23372D01*
X42132Y-23431D01*
X42113Y-23459D01*
X42113Y-21810D01*
X41437Y-21133D01*
X41366Y-21204D01*
X41366Y-21062D01*
X40689Y-20386D01*
X40542Y-20474D01*
X40385Y-20861D01*
X40388Y-21279D01*
X40542Y-21651D01*
X40689Y-21739D01*
X41366Y-21062D01*
X41366Y-21204D01*
X40760Y-21810D01*
X40848Y-21957D01*
X41235Y-22114D01*
X41653Y-22111D01*
X42025Y-21957D01*
X42113Y-21810D01*
X42113Y-23459D01*
X42073Y-23518D01*
X42053Y-23622D01*
X42053Y-24336D01*
X40328Y-24336D01*
X40328Y-23970D01*
X40469Y-24029D01*
X40631Y-24029D01*
X40781Y-23967D01*
X40896Y-23853D01*
X40958Y-23703D01*
X40958Y-23541D01*
X40896Y-23391D01*
X40782Y-23276D01*
X40632Y-23214D01*
X40470Y-23214D01*
X40328Y-23273D01*
X40328Y-22637D01*
X40308Y-22534D01*
X40249Y-22447D01*
X40162Y-22388D01*
X40059Y-22368D01*
X39836Y-22368D01*
X39836Y-18773D01*
X40551Y-18773D01*
X40654Y-18753D01*
X40741Y-18694D01*
X40800Y-18607D01*
X40820Y-18503D01*
X40820Y-17789D01*
X42405Y-17789D01*
X42337Y-17856D01*
X42269Y-18020D01*
X42269Y-18198D01*
X42337Y-18363D01*
X42416Y-18442D01*
X42416Y-20680D01*
X42331Y-20474D01*
X42184Y-20386D01*
X42113Y-20457D01*
X42113Y-20315D01*
X42025Y-20168D01*
X41638Y-20011D01*
X41220Y-20014D01*
X40848Y-20168D01*
X40760Y-20315D01*
X41437Y-20992D01*
X42113Y-20315D01*
X42113Y-20457D01*
X41507Y-21062D01*
X42184Y-21739D01*
X42331Y-21651D01*
X42409Y-21458D01*
X42425Y-21474D01*
X42582Y-21539D01*
X42751Y-21539D01*
X42907Y-21475D01*
X43027Y-21355D01*
X43037Y-21330D01*
X43037Y-23352D01*
M02*
