G04 (created by PCBNEW (2013-jul-07)-stable) date Wed 22 Apr 2015 23:33:40 BST*
%MOIN*%
G04 Gerber Fmt 3.4, Leading zero omitted, Abs format*
%FSLAX34Y34*%
G01*
G70*
G90*
G04 APERTURE LIST*
%ADD10C,0.00590551*%
%ADD11R,0.0669291X0.0314961*%
%ADD12C,0.0314961*%
%ADD13C,0.0393701*%
%ADD14R,0.0314X0.0314*%
%ADD15R,0.0137X0.0472*%
%ADD16C,0.035*%
%ADD17C,0.01*%
G04 APERTURE END LIST*
G54D10*
G54D11*
X40551Y-24291D03*
X40551Y-22952D03*
G54D12*
X40551Y-23622D03*
G54D13*
X42716Y-18110D03*
G54D14*
X41437Y-19389D03*
X41437Y-18799D03*
X41437Y-21357D03*
X41437Y-20767D03*
X41437Y-23326D03*
X41437Y-22736D03*
G54D15*
X43001Y-19911D03*
X42745Y-19911D03*
X42491Y-19911D03*
X42235Y-19911D03*
X42235Y-22213D03*
X42491Y-22213D03*
X42745Y-22213D03*
X43001Y-22213D03*
G54D16*
X41425Y-22174D03*
X41880Y-23922D03*
X42667Y-21114D03*
G54D17*
X41744Y-19034D02*
X41744Y-18799D01*
X42235Y-19525D02*
X41744Y-19034D01*
X42235Y-19912D02*
X42235Y-19525D01*
X42072Y-20460D02*
X42235Y-20298D01*
X41437Y-20460D02*
X42072Y-20460D01*
X41437Y-20767D02*
X41437Y-20460D01*
X42235Y-19912D02*
X42235Y-20298D01*
X41590Y-18799D02*
X41744Y-18799D01*
X41590Y-18799D02*
X41437Y-18799D01*
X41437Y-22736D02*
X41437Y-22429D01*
X41437Y-22185D02*
X41425Y-22174D01*
X41437Y-22429D02*
X41437Y-22185D01*
X40916Y-21664D02*
X41425Y-22174D01*
X40916Y-19320D02*
X40916Y-21664D01*
X41437Y-18799D02*
X40916Y-19320D01*
X40551Y-24291D02*
X41035Y-24291D01*
X41512Y-24291D02*
X41880Y-23922D01*
X41035Y-24291D02*
X41512Y-24291D01*
X43001Y-22213D02*
X43001Y-21827D01*
X43001Y-21448D02*
X42667Y-21114D01*
X43001Y-21827D02*
X43001Y-21448D01*
X41129Y-20003D02*
X41437Y-19696D01*
X41129Y-21586D02*
X41129Y-20003D01*
X41371Y-21827D02*
X41129Y-21586D01*
X42491Y-21827D02*
X41371Y-21827D01*
X42491Y-22213D02*
X42491Y-21827D01*
X41437Y-19389D02*
X41437Y-19696D01*
X40816Y-23260D02*
X40551Y-23260D01*
X41189Y-23633D02*
X40816Y-23260D01*
X41660Y-23633D02*
X41189Y-23633D01*
X42235Y-23059D02*
X41660Y-23633D01*
X42235Y-22213D02*
X42235Y-23059D01*
X40551Y-22952D02*
X40551Y-23260D01*
X41437Y-21357D02*
X41744Y-21357D01*
X41744Y-21299D02*
X41744Y-21357D01*
X42745Y-20298D02*
X41744Y-21299D01*
X42745Y-19912D02*
X42745Y-20298D01*
X41129Y-23019D02*
X41437Y-23326D01*
X41129Y-22501D02*
X41129Y-23019D01*
X40715Y-22087D02*
X41129Y-22501D01*
X40715Y-18971D02*
X40715Y-22087D01*
X41198Y-18488D02*
X40715Y-18971D01*
X41728Y-18488D02*
X41198Y-18488D01*
X42491Y-19251D02*
X41728Y-18488D01*
X42491Y-19912D02*
X42491Y-19251D01*
G54D10*
G36*
X41494Y-18849D02*
X41487Y-18849D01*
X41487Y-18857D01*
X41387Y-18857D01*
X41387Y-18849D01*
X41379Y-18849D01*
X41379Y-18788D01*
X41494Y-18788D01*
X41494Y-18849D01*
X41494Y-18849D01*
G37*
G54D17*
X41494Y-18849D02*
X41487Y-18849D01*
X41487Y-18857D01*
X41387Y-18857D01*
X41387Y-18849D01*
X41379Y-18849D01*
X41379Y-18788D01*
X41494Y-18788D01*
X41494Y-18849D01*
G54D10*
G36*
X41935Y-22934D02*
X41816Y-23053D01*
X41807Y-23031D01*
X41844Y-22943D01*
X41844Y-22529D01*
X41806Y-22438D01*
X41735Y-22367D01*
X41643Y-22329D01*
X41544Y-22329D01*
X41549Y-22329D01*
X41487Y-22391D01*
X41487Y-22686D01*
X41781Y-22686D01*
X41844Y-22623D01*
X41844Y-22529D01*
X41844Y-22943D01*
X41844Y-22848D01*
X41781Y-22786D01*
X41487Y-22786D01*
X41487Y-22794D01*
X41429Y-22794D01*
X41429Y-22501D01*
X41407Y-22386D01*
X41342Y-22289D01*
X41015Y-21963D01*
X41015Y-21896D01*
X41159Y-22040D01*
X41159Y-22040D01*
X41256Y-22105D01*
X41371Y-22127D01*
X41371Y-22127D01*
X41916Y-22127D01*
X41916Y-22499D01*
X41935Y-22544D01*
X41935Y-22934D01*
X41935Y-22934D01*
G37*
G54D17*
X41935Y-22934D02*
X41816Y-23053D01*
X41807Y-23031D01*
X41844Y-22943D01*
X41844Y-22529D01*
X41806Y-22438D01*
X41735Y-22367D01*
X41643Y-22329D01*
X41544Y-22329D01*
X41549Y-22329D01*
X41487Y-22391D01*
X41487Y-22686D01*
X41781Y-22686D01*
X41844Y-22623D01*
X41844Y-22529D01*
X41844Y-22943D01*
X41844Y-22848D01*
X41781Y-22786D01*
X41487Y-22786D01*
X41487Y-22794D01*
X41429Y-22794D01*
X41429Y-22501D01*
X41407Y-22386D01*
X41342Y-22289D01*
X41015Y-21963D01*
X41015Y-21896D01*
X41159Y-22040D01*
X41159Y-22040D01*
X41256Y-22105D01*
X41371Y-22127D01*
X41371Y-22127D01*
X41916Y-22127D01*
X41916Y-22499D01*
X41935Y-22544D01*
X41935Y-22934D01*
G54D10*
G36*
X42053Y-24336D02*
X40493Y-24336D01*
X40493Y-24241D01*
X40501Y-24241D01*
X40501Y-24233D01*
X40601Y-24233D01*
X40601Y-24241D01*
X41073Y-24241D01*
X41135Y-24178D01*
X41135Y-24084D01*
X41097Y-23992D01*
X41027Y-23922D01*
X40935Y-23883D01*
X40865Y-23883D01*
X40896Y-23853D01*
X40922Y-23790D01*
X40977Y-23845D01*
X40977Y-23845D01*
X41074Y-23910D01*
X41189Y-23933D01*
X41660Y-23933D01*
X41660Y-23933D01*
X41775Y-23910D01*
X41775Y-23910D01*
X41872Y-23845D01*
X42053Y-23665D01*
X42053Y-24336D01*
X42053Y-24336D01*
G37*
G54D17*
X42053Y-24336D02*
X40493Y-24336D01*
X40493Y-24241D01*
X40501Y-24241D01*
X40501Y-24233D01*
X40601Y-24233D01*
X40601Y-24241D01*
X41073Y-24241D01*
X41135Y-24178D01*
X41135Y-24084D01*
X41097Y-23992D01*
X41027Y-23922D01*
X40935Y-23883D01*
X40865Y-23883D01*
X40896Y-23853D01*
X40922Y-23790D01*
X40977Y-23845D01*
X40977Y-23845D01*
X41074Y-23910D01*
X41189Y-23933D01*
X41660Y-23933D01*
X41660Y-23933D01*
X41775Y-23910D01*
X41775Y-23910D01*
X41872Y-23845D01*
X42053Y-23665D01*
X42053Y-24336D01*
G54D10*
G36*
X42220Y-20397D02*
X41844Y-20774D01*
X41844Y-20561D01*
X41806Y-20469D01*
X41735Y-20399D01*
X41643Y-20361D01*
X41544Y-20360D01*
X41549Y-20360D01*
X41487Y-20423D01*
X41487Y-20717D01*
X41781Y-20717D01*
X41844Y-20655D01*
X41844Y-20561D01*
X41844Y-20774D01*
X41791Y-20827D01*
X41781Y-20817D01*
X41487Y-20817D01*
X41487Y-20825D01*
X41429Y-20825D01*
X41429Y-20128D01*
X41649Y-19908D01*
X41714Y-19811D01*
X41714Y-19811D01*
X41723Y-19763D01*
X41735Y-19758D01*
X41805Y-19688D01*
X41843Y-19596D01*
X41844Y-19496D01*
X41844Y-19182D01*
X41807Y-19094D01*
X41837Y-19021D01*
X42191Y-19375D01*
X42191Y-19425D01*
X42216Y-19425D01*
X42191Y-19425D01*
X42191Y-19425D01*
X42185Y-19425D01*
X42185Y-19472D01*
X42138Y-19426D01*
X42116Y-19426D01*
X42024Y-19464D01*
X41954Y-19534D01*
X41916Y-19626D01*
X41916Y-19799D01*
X41979Y-19861D01*
X42172Y-19861D01*
X42172Y-19961D01*
X41979Y-19961D01*
X41916Y-20024D01*
X41916Y-20197D01*
X41954Y-20289D01*
X42024Y-20359D01*
X42116Y-20397D01*
X42138Y-20397D01*
X42185Y-20351D01*
X42185Y-20397D01*
X42220Y-20397D01*
X42220Y-20397D01*
G37*
G54D17*
X42220Y-20397D02*
X41844Y-20774D01*
X41844Y-20561D01*
X41806Y-20469D01*
X41735Y-20399D01*
X41643Y-20361D01*
X41544Y-20360D01*
X41549Y-20360D01*
X41487Y-20423D01*
X41487Y-20717D01*
X41781Y-20717D01*
X41844Y-20655D01*
X41844Y-20561D01*
X41844Y-20774D01*
X41791Y-20827D01*
X41781Y-20817D01*
X41487Y-20817D01*
X41487Y-20825D01*
X41429Y-20825D01*
X41429Y-20128D01*
X41649Y-19908D01*
X41714Y-19811D01*
X41714Y-19811D01*
X41723Y-19763D01*
X41735Y-19758D01*
X41805Y-19688D01*
X41843Y-19596D01*
X41844Y-19496D01*
X41844Y-19182D01*
X41807Y-19094D01*
X41837Y-19021D01*
X42191Y-19375D01*
X42191Y-19425D01*
X42216Y-19425D01*
X42191Y-19425D01*
X42191Y-19425D01*
X42185Y-19425D01*
X42185Y-19472D01*
X42138Y-19426D01*
X42116Y-19426D01*
X42024Y-19464D01*
X41954Y-19534D01*
X41916Y-19626D01*
X41916Y-19799D01*
X41979Y-19861D01*
X42172Y-19861D01*
X42172Y-19961D01*
X41979Y-19961D01*
X41916Y-20024D01*
X41916Y-20197D01*
X41954Y-20289D01*
X42024Y-20359D01*
X42116Y-20397D01*
X42138Y-20397D01*
X42185Y-20351D01*
X42185Y-20397D01*
X42220Y-20397D01*
M02*
