G04 (created by PCBNEW (2013-jul-07)-stable) date Wed 22 Apr 2015 23:33:40 BST*
%MOIN*%
G04 Gerber Fmt 3.4, Leading zero omitted, Abs format*
%FSLAX34Y34*%
G01*
G70*
G90*
G04 APERTURE LIST*
%ADD10C,0.00590551*%
%ADD11C,0.011811*%
%ADD12C,0.0026*%
%ADD13C,0.004*%
%ADD14C,0.0078*%
%ADD15C,0.0001*%
%ADD16C,0.005*%
%ADD17C,0.0039*%
%ADD18C,0.0035*%
%ADD19R,0.0669291X0.0314961*%
%ADD20C,0.0314961*%
%ADD21C,0.0393701*%
%ADD22R,0.0314X0.0314*%
%ADD23R,0.0137X0.0472*%
G04 APERTURE END LIST*
G54D10*
G54D11*
X39832Y-22410D02*
X39809Y-22387D01*
X39785Y-22340D01*
X39785Y-22223D01*
X39809Y-22176D01*
X39832Y-22153D01*
X39879Y-22129D01*
X39926Y-22129D01*
X39996Y-22153D01*
X40277Y-22434D01*
X40277Y-22129D01*
X39785Y-21825D02*
X39785Y-21778D01*
X39809Y-21731D01*
X39832Y-21707D01*
X39879Y-21684D01*
X39973Y-21661D01*
X40090Y-21661D01*
X40184Y-21684D01*
X40231Y-21707D01*
X40254Y-21731D01*
X40277Y-21778D01*
X40277Y-21825D01*
X40254Y-21871D01*
X40231Y-21895D01*
X40184Y-21918D01*
X40090Y-21942D01*
X39973Y-21942D01*
X39879Y-21918D01*
X39832Y-21895D01*
X39809Y-21871D01*
X39785Y-21825D01*
X40277Y-21192D02*
X40277Y-21473D01*
X40277Y-21332D02*
X39785Y-21332D01*
X39856Y-21379D01*
X39902Y-21426D01*
X39926Y-21473D01*
X39785Y-20747D02*
X39785Y-20981D01*
X40020Y-21004D01*
X39996Y-20981D01*
X39973Y-20934D01*
X39973Y-20817D01*
X39996Y-20770D01*
X40020Y-20747D01*
X40067Y-20723D01*
X40184Y-20723D01*
X40231Y-20747D01*
X40254Y-20770D01*
X40277Y-20817D01*
X40277Y-20934D01*
X40254Y-20981D01*
X40231Y-21004D01*
X39785Y-20419D02*
X39785Y-20372D01*
X39809Y-20325D01*
X39832Y-20301D01*
X39879Y-20278D01*
X39973Y-20254D01*
X40090Y-20254D01*
X40184Y-20278D01*
X40231Y-20301D01*
X40254Y-20325D01*
X40277Y-20372D01*
X40277Y-20419D01*
X40254Y-20465D01*
X40231Y-20489D01*
X40184Y-20512D01*
X40090Y-20536D01*
X39973Y-20536D01*
X39879Y-20512D01*
X39832Y-20489D01*
X39809Y-20465D01*
X39785Y-20419D01*
X39949Y-19833D02*
X40277Y-19833D01*
X39762Y-19950D02*
X40113Y-20067D01*
X40113Y-19762D01*
X39832Y-19598D02*
X39809Y-19575D01*
X39785Y-19528D01*
X39785Y-19411D01*
X39809Y-19364D01*
X39832Y-19341D01*
X39879Y-19317D01*
X39926Y-19317D01*
X39996Y-19341D01*
X40277Y-19622D01*
X40277Y-19317D01*
X39832Y-19130D02*
X39809Y-19106D01*
X39785Y-19059D01*
X39785Y-18942D01*
X39809Y-18895D01*
X39832Y-18872D01*
X39879Y-18848D01*
X39926Y-18848D01*
X39996Y-18872D01*
X40277Y-19153D01*
X40277Y-18848D01*
G54D12*
X41260Y-18917D02*
X41614Y-18917D01*
X41614Y-18917D02*
X41614Y-18760D01*
X41260Y-18760D02*
X41614Y-18760D01*
X41260Y-18917D02*
X41260Y-18760D01*
X41260Y-19428D02*
X41614Y-19428D01*
X41614Y-19428D02*
X41614Y-19271D01*
X41260Y-19271D02*
X41614Y-19271D01*
X41260Y-19428D02*
X41260Y-19271D01*
X41260Y-19094D02*
X41319Y-19094D01*
X41319Y-19094D02*
X41319Y-18976D01*
X41260Y-18976D02*
X41319Y-18976D01*
X41260Y-19094D02*
X41260Y-18976D01*
X41555Y-19094D02*
X41614Y-19094D01*
X41614Y-19094D02*
X41614Y-18976D01*
X41555Y-18976D02*
X41614Y-18976D01*
X41555Y-19094D02*
X41555Y-18976D01*
X41378Y-19094D02*
X41496Y-19094D01*
X41496Y-19094D02*
X41496Y-18976D01*
X41378Y-18976D02*
X41496Y-18976D01*
X41378Y-19094D02*
X41378Y-18976D01*
G54D13*
X41280Y-18917D02*
X41280Y-19271D01*
X41594Y-18917D02*
X41594Y-19271D01*
G54D12*
X41260Y-20885D02*
X41614Y-20885D01*
X41614Y-20885D02*
X41614Y-20728D01*
X41260Y-20728D02*
X41614Y-20728D01*
X41260Y-20885D02*
X41260Y-20728D01*
X41260Y-21396D02*
X41614Y-21396D01*
X41614Y-21396D02*
X41614Y-21239D01*
X41260Y-21239D02*
X41614Y-21239D01*
X41260Y-21396D02*
X41260Y-21239D01*
X41260Y-21062D02*
X41319Y-21062D01*
X41319Y-21062D02*
X41319Y-20944D01*
X41260Y-20944D02*
X41319Y-20944D01*
X41260Y-21062D02*
X41260Y-20944D01*
X41555Y-21062D02*
X41614Y-21062D01*
X41614Y-21062D02*
X41614Y-20944D01*
X41555Y-20944D02*
X41614Y-20944D01*
X41555Y-21062D02*
X41555Y-20944D01*
X41378Y-21062D02*
X41496Y-21062D01*
X41496Y-21062D02*
X41496Y-20944D01*
X41378Y-20944D02*
X41496Y-20944D01*
X41378Y-21062D02*
X41378Y-20944D01*
G54D13*
X41280Y-20885D02*
X41280Y-21239D01*
X41594Y-20885D02*
X41594Y-21239D01*
G54D12*
X41260Y-22854D02*
X41614Y-22854D01*
X41614Y-22854D02*
X41614Y-22697D01*
X41260Y-22697D02*
X41614Y-22697D01*
X41260Y-22854D02*
X41260Y-22697D01*
X41260Y-23365D02*
X41614Y-23365D01*
X41614Y-23365D02*
X41614Y-23208D01*
X41260Y-23208D02*
X41614Y-23208D01*
X41260Y-23365D02*
X41260Y-23208D01*
X41260Y-23031D02*
X41319Y-23031D01*
X41319Y-23031D02*
X41319Y-22913D01*
X41260Y-22913D02*
X41319Y-22913D01*
X41260Y-23031D02*
X41260Y-22913D01*
X41555Y-23031D02*
X41614Y-23031D01*
X41614Y-23031D02*
X41614Y-22913D01*
X41555Y-22913D02*
X41614Y-22913D01*
X41555Y-23031D02*
X41555Y-22913D01*
X41378Y-23031D02*
X41496Y-23031D01*
X41496Y-23031D02*
X41496Y-22913D01*
X41378Y-22913D02*
X41496Y-22913D01*
X41378Y-23031D02*
X41378Y-22913D01*
G54D13*
X41280Y-22854D02*
X41280Y-23208D01*
X41594Y-22854D02*
X41594Y-23208D01*
G54D12*
X42952Y-19803D02*
X42952Y-20196D01*
X42952Y-20196D02*
X43051Y-20196D01*
X43051Y-19803D02*
X43051Y-20196D01*
X42952Y-19803D02*
X43051Y-19803D01*
X42696Y-19803D02*
X42696Y-20196D01*
X42696Y-20196D02*
X42795Y-20196D01*
X42795Y-19803D02*
X42795Y-20196D01*
X42696Y-19803D02*
X42795Y-19803D01*
X42441Y-19803D02*
X42441Y-20196D01*
X42441Y-20196D02*
X42540Y-20196D01*
X42540Y-19803D02*
X42540Y-20196D01*
X42441Y-19803D02*
X42540Y-19803D01*
X42185Y-19803D02*
X42185Y-20196D01*
X42185Y-20196D02*
X42284Y-20196D01*
X42284Y-19803D02*
X42284Y-20196D01*
X42185Y-19803D02*
X42284Y-19803D01*
X42185Y-21928D02*
X42185Y-22321D01*
X42185Y-22321D02*
X42284Y-22321D01*
X42284Y-21928D02*
X42284Y-22321D01*
X42185Y-21928D02*
X42284Y-21928D01*
X42441Y-21928D02*
X42441Y-22321D01*
X42441Y-22321D02*
X42540Y-22321D01*
X42540Y-21928D02*
X42540Y-22321D01*
X42441Y-21928D02*
X42540Y-21928D01*
X42696Y-21928D02*
X42696Y-22321D01*
X42696Y-22321D02*
X42795Y-22321D01*
X42795Y-21928D02*
X42795Y-22321D01*
X42696Y-21928D02*
X42795Y-21928D01*
X42952Y-21928D02*
X42952Y-22321D01*
X42952Y-22321D02*
X43051Y-22321D01*
X43051Y-21928D02*
X43051Y-22321D01*
X42952Y-21928D02*
X43051Y-21928D01*
G54D14*
X42067Y-20216D02*
X42067Y-21908D01*
X42067Y-21908D02*
X43169Y-21908D01*
X43169Y-21908D02*
X43169Y-20216D01*
X43169Y-20216D02*
X42067Y-20216D01*
G54D15*
X42962Y-20423D02*
G75*
G03X42962Y-20423I-89J0D01*
G74*
G01*
G54D16*
X41117Y-19437D02*
X40917Y-19437D01*
X40917Y-19389D01*
X40927Y-19361D01*
X40946Y-19342D01*
X40965Y-19332D01*
X41003Y-19323D01*
X41032Y-19323D01*
X41070Y-19332D01*
X41089Y-19342D01*
X41108Y-19361D01*
X41117Y-19389D01*
X41117Y-19437D01*
X41117Y-19132D02*
X41117Y-19246D01*
X41117Y-19189D02*
X40917Y-19189D01*
X40946Y-19208D01*
X40965Y-19227D01*
X40975Y-19246D01*
X41117Y-18932D02*
X41022Y-18999D01*
X41117Y-19046D02*
X40917Y-19046D01*
X40917Y-18970D01*
X40927Y-18951D01*
X40937Y-18942D01*
X40956Y-18932D01*
X40984Y-18932D01*
X41003Y-18942D01*
X41013Y-18951D01*
X41022Y-18970D01*
X41022Y-19046D01*
X41117Y-18742D02*
X41117Y-18856D01*
X41117Y-18799D02*
X40917Y-18799D01*
X40946Y-18818D01*
X40965Y-18837D01*
X40975Y-18856D01*
X41917Y-19223D02*
X41917Y-19318D01*
X41717Y-19318D01*
X41813Y-19156D02*
X41813Y-19089D01*
X41917Y-19061D02*
X41917Y-19156D01*
X41717Y-19156D01*
X41717Y-19061D01*
X41917Y-18975D02*
X41717Y-18975D01*
X41717Y-18927D01*
X41727Y-18899D01*
X41746Y-18880D01*
X41765Y-18870D01*
X41803Y-18861D01*
X41832Y-18861D01*
X41870Y-18870D01*
X41889Y-18880D01*
X41908Y-18899D01*
X41917Y-18927D01*
X41917Y-18975D01*
X41117Y-21391D02*
X40917Y-21391D01*
X40917Y-21343D01*
X40927Y-21315D01*
X40946Y-21296D01*
X40965Y-21286D01*
X41003Y-21277D01*
X41032Y-21277D01*
X41070Y-21286D01*
X41089Y-21296D01*
X41108Y-21315D01*
X41117Y-21343D01*
X41117Y-21391D01*
X40937Y-21201D02*
X40927Y-21191D01*
X40917Y-21172D01*
X40917Y-21124D01*
X40927Y-21105D01*
X40937Y-21096D01*
X40956Y-21086D01*
X40975Y-21086D01*
X41003Y-21096D01*
X41117Y-21210D01*
X41117Y-21086D01*
X41060Y-21010D02*
X41060Y-20915D01*
X41117Y-21029D02*
X40917Y-20962D01*
X41117Y-20896D01*
X41117Y-20724D02*
X41117Y-20839D01*
X41117Y-20782D02*
X40917Y-20782D01*
X40946Y-20801D01*
X40965Y-20820D01*
X40975Y-20839D01*
X41917Y-21191D02*
X41917Y-21286D01*
X41717Y-21286D01*
X41813Y-21124D02*
X41813Y-21058D01*
X41917Y-21029D02*
X41917Y-21124D01*
X41717Y-21124D01*
X41717Y-21029D01*
X41917Y-20943D02*
X41717Y-20943D01*
X41717Y-20896D01*
X41727Y-20867D01*
X41746Y-20848D01*
X41765Y-20839D01*
X41803Y-20829D01*
X41832Y-20829D01*
X41870Y-20839D01*
X41889Y-20848D01*
X41908Y-20867D01*
X41917Y-20896D01*
X41917Y-20943D01*
X41117Y-23374D02*
X40917Y-23374D01*
X40917Y-23326D01*
X40927Y-23298D01*
X40946Y-23279D01*
X40965Y-23269D01*
X41003Y-23260D01*
X41032Y-23260D01*
X41070Y-23269D01*
X41089Y-23279D01*
X41108Y-23298D01*
X41117Y-23326D01*
X41117Y-23374D01*
X40917Y-23193D02*
X40917Y-23069D01*
X40994Y-23136D01*
X40994Y-23107D01*
X41003Y-23088D01*
X41013Y-23079D01*
X41032Y-23069D01*
X41079Y-23069D01*
X41098Y-23079D01*
X41108Y-23088D01*
X41117Y-23107D01*
X41117Y-23164D01*
X41108Y-23183D01*
X41098Y-23193D01*
X40927Y-22879D02*
X40917Y-22898D01*
X40917Y-22926D01*
X40927Y-22955D01*
X40946Y-22974D01*
X40965Y-22983D01*
X41003Y-22993D01*
X41032Y-22993D01*
X41070Y-22983D01*
X41089Y-22974D01*
X41108Y-22955D01*
X41117Y-22926D01*
X41117Y-22907D01*
X41108Y-22879D01*
X41098Y-22869D01*
X41032Y-22869D01*
X41032Y-22907D01*
X41117Y-22679D02*
X41117Y-22793D01*
X41117Y-22736D02*
X40917Y-22736D01*
X40946Y-22755D01*
X40965Y-22774D01*
X40975Y-22793D01*
X41917Y-23160D02*
X41917Y-23255D01*
X41717Y-23255D01*
X41813Y-23093D02*
X41813Y-23026D01*
X41917Y-22998D02*
X41917Y-23093D01*
X41717Y-23093D01*
X41717Y-22998D01*
X41917Y-22912D02*
X41717Y-22912D01*
X41717Y-22864D01*
X41727Y-22836D01*
X41746Y-22817D01*
X41765Y-22807D01*
X41803Y-22798D01*
X41832Y-22798D01*
X41870Y-22807D01*
X41889Y-22817D01*
X41908Y-22836D01*
X41917Y-22864D01*
X41917Y-22912D01*
G54D17*
X42697Y-21353D02*
X42500Y-21353D01*
X42679Y-21146D02*
X42688Y-21156D01*
X42697Y-21184D01*
X42697Y-21203D01*
X42688Y-21231D01*
X42669Y-21250D01*
X42650Y-21259D01*
X42613Y-21268D01*
X42585Y-21268D01*
X42547Y-21259D01*
X42528Y-21250D01*
X42510Y-21231D01*
X42500Y-21203D01*
X42500Y-21184D01*
X42510Y-21156D01*
X42519Y-21146D01*
X42697Y-20959D02*
X42697Y-21071D01*
X42697Y-21015D02*
X42500Y-21015D01*
X42528Y-21034D01*
X42547Y-21053D01*
X42557Y-21071D01*
G54D18*
X41776Y-23402D02*
X41776Y-23163D01*
X41919Y-23449D02*
X41419Y-23282D01*
X41919Y-23116D01*
X41419Y-23021D02*
X41419Y-22735D01*
X41919Y-22878D02*
X41419Y-22878D01*
X41419Y-22640D02*
X41419Y-22354D01*
X41919Y-22497D02*
X41419Y-22497D01*
X41919Y-22187D02*
X41419Y-22187D01*
X41919Y-21949D02*
X41419Y-21949D01*
X41919Y-21663D01*
X41419Y-21663D01*
X41681Y-21330D02*
X41919Y-21330D01*
X41419Y-21497D02*
X41681Y-21330D01*
X41419Y-21163D01*
X41586Y-20782D02*
X41919Y-20782D01*
X41395Y-20902D02*
X41752Y-21021D01*
X41752Y-20711D01*
X41419Y-20282D02*
X41419Y-20521D01*
X41657Y-20544D01*
X41633Y-20521D01*
X41609Y-20473D01*
X41609Y-20354D01*
X41633Y-20306D01*
X41657Y-20282D01*
X41705Y-20259D01*
X41824Y-20259D01*
X41871Y-20282D01*
X41895Y-20306D01*
X41919Y-20354D01*
X41919Y-20473D01*
X41895Y-20521D01*
X41871Y-20544D01*
X41729Y-20044D02*
X41729Y-19663D01*
X41895Y-19449D02*
X41919Y-19378D01*
X41919Y-19259D01*
X41895Y-19211D01*
X41871Y-19187D01*
X41824Y-19163D01*
X41776Y-19163D01*
X41729Y-19187D01*
X41705Y-19211D01*
X41681Y-19259D01*
X41657Y-19354D01*
X41633Y-19402D01*
X41609Y-19425D01*
X41562Y-19449D01*
X41514Y-19449D01*
X41467Y-19425D01*
X41443Y-19402D01*
X41419Y-19354D01*
X41419Y-19235D01*
X41443Y-19163D01*
%LPC*%
G54D19*
X40551Y-24291D03*
X40551Y-22952D03*
G54D20*
X40551Y-23622D03*
G54D21*
X42716Y-18110D03*
G54D22*
X41437Y-19389D03*
X41437Y-18799D03*
X41437Y-21357D03*
X41437Y-20767D03*
X41437Y-23326D03*
X41437Y-22736D03*
G54D23*
X43001Y-19911D03*
X42745Y-19911D03*
X42491Y-19911D03*
X42235Y-19911D03*
X42235Y-22213D03*
X42491Y-22213D03*
X42745Y-22213D03*
X43001Y-22213D03*
M02*
