G04 (created by PCBNEW (2013-jul-07)-stable) date Sun 26 Apr 2015 15:04:57 BST*
%MOIN*%
G04 Gerber Fmt 3.4, Leading zero omitted, Abs format*
%FSLAX34Y34*%
G01*
G70*
G90*
G04 APERTURE LIST*
%ADD10C,0.00590551*%
%ADD11C,0.00787402*%
%ADD12C,0.0026*%
%ADD13C,0.0078*%
%ADD14C,0.0001*%
%ADD15R,0.15748X0.0590551*%
%ADD16R,0.015748X0.0393701*%
%ADD17R,0.0314961X0.0669291*%
%ADD18C,0.0314961*%
%ADD19R,0.0354331X0.023622*%
%ADD20R,0.0472X0.0137*%
G04 APERTURE END LIST*
G54D10*
G54D11*
X20551Y-19448D02*
G75*
G03X20551Y-19448I-78J0D01*
G74*
G01*
X19236Y-18267D02*
G75*
G03X19236Y-18267I-141J0D01*
G74*
G01*
X21850Y-19330D02*
G75*
G03X21850Y-19330I-78J0D01*
G74*
G01*
G54D10*
X20866Y-20157D02*
X20866Y-20669D01*
X20866Y-20669D02*
X21732Y-20669D01*
X21732Y-20669D02*
X21732Y-20157D01*
X21732Y-19685D02*
X21732Y-19488D01*
X21732Y-19488D02*
X20905Y-19488D01*
X20905Y-19488D02*
X20866Y-19488D01*
X20866Y-19488D02*
X20866Y-20000D01*
X18976Y-20314D02*
G75*
G03X18976Y-20157I-78J78D01*
G74*
G01*
X20236Y-20157D02*
G75*
G03X20236Y-20314I78J-78D01*
G74*
G01*
X20039Y-19527D02*
X19055Y-19527D01*
X20236Y-19763D02*
X20236Y-19527D01*
X20236Y-19527D02*
X20039Y-19527D01*
G54D12*
X18426Y-18268D02*
X18819Y-18268D01*
X18819Y-18268D02*
X18819Y-18169D01*
X18426Y-18169D02*
X18819Y-18169D01*
X18426Y-18268D02*
X18426Y-18169D01*
X18426Y-18524D02*
X18819Y-18524D01*
X18819Y-18524D02*
X18819Y-18425D01*
X18426Y-18425D02*
X18819Y-18425D01*
X18426Y-18524D02*
X18426Y-18425D01*
X18426Y-18779D02*
X18819Y-18779D01*
X18819Y-18779D02*
X18819Y-18680D01*
X18426Y-18680D02*
X18819Y-18680D01*
X18426Y-18779D02*
X18426Y-18680D01*
X18426Y-19035D02*
X18819Y-19035D01*
X18819Y-19035D02*
X18819Y-18936D01*
X18426Y-18936D02*
X18819Y-18936D01*
X18426Y-19035D02*
X18426Y-18936D01*
X20551Y-19035D02*
X20944Y-19035D01*
X20944Y-19035D02*
X20944Y-18936D01*
X20551Y-18936D02*
X20944Y-18936D01*
X20551Y-19035D02*
X20551Y-18936D01*
X20551Y-18779D02*
X20944Y-18779D01*
X20944Y-18779D02*
X20944Y-18680D01*
X20551Y-18680D02*
X20944Y-18680D01*
X20551Y-18779D02*
X20551Y-18680D01*
X20551Y-18524D02*
X20944Y-18524D01*
X20944Y-18524D02*
X20944Y-18425D01*
X20551Y-18425D02*
X20944Y-18425D01*
X20551Y-18524D02*
X20551Y-18425D01*
X20551Y-18268D02*
X20944Y-18268D01*
X20944Y-18268D02*
X20944Y-18169D01*
X20551Y-18169D02*
X20944Y-18169D01*
X20551Y-18268D02*
X20551Y-18169D01*
G54D13*
X18839Y-19153D02*
X20531Y-19153D01*
X20531Y-19153D02*
X20531Y-18051D01*
X20531Y-18051D02*
X18839Y-18051D01*
X18839Y-18051D02*
X18839Y-19153D01*
G54D14*
X19135Y-18347D02*
G75*
G03X19135Y-18347I-89J0D01*
G74*
G01*
%LPC*%
G54D15*
X19685Y-17559D03*
G54D16*
X21555Y-19783D03*
X21299Y-19783D03*
X21043Y-19783D03*
X21043Y-20374D03*
X21299Y-20374D03*
X21555Y-20374D03*
G54D17*
X20354Y-21062D03*
X19015Y-21062D03*
G54D18*
X19685Y-21062D03*
G54D19*
X19901Y-19783D03*
X19901Y-20216D03*
X19311Y-20216D03*
X19311Y-19783D03*
G54D20*
X18534Y-18219D03*
X18534Y-18475D03*
X18534Y-18729D03*
X18534Y-18985D03*
X20836Y-18985D03*
X20836Y-18729D03*
X20836Y-18475D03*
X20836Y-18219D03*
M02*
