G04 (created by PCBNEW (2013-jul-07)-stable) date Sun 26 Apr 2015 15:04:57 BST*
%MOIN*%
G04 Gerber Fmt 3.4, Leading zero omitted, Abs format*
%FSLAX34Y34*%
G01*
G70*
G90*
G04 APERTURE LIST*
%ADD10C,0.00590551*%
%ADD11C,0.00787402*%
%ADD12C,0.11811*%
%ADD13C,0.0314961*%
G04 APERTURE END LIST*
G54D10*
G54D11*
X20922Y-18742D02*
X21259Y-18742D01*
X21091Y-18742D02*
X21091Y-18152D01*
X21147Y-18236D01*
X21203Y-18293D01*
X21259Y-18321D01*
X20388Y-18152D02*
X20669Y-18152D01*
X20697Y-18433D01*
X20669Y-18405D01*
X20613Y-18377D01*
X20472Y-18377D01*
X20416Y-18405D01*
X20388Y-18433D01*
X20359Y-18489D01*
X20359Y-18630D01*
X20388Y-18686D01*
X20416Y-18714D01*
X20472Y-18742D01*
X20613Y-18742D01*
X20669Y-18714D01*
X20697Y-18686D01*
X19994Y-18152D02*
X19938Y-18152D01*
X19881Y-18180D01*
X19853Y-18208D01*
X19825Y-18264D01*
X19797Y-18377D01*
X19797Y-18517D01*
X19825Y-18630D01*
X19853Y-18686D01*
X19881Y-18714D01*
X19938Y-18742D01*
X19994Y-18742D01*
X20050Y-18714D01*
X20078Y-18686D01*
X20106Y-18630D01*
X20134Y-18517D01*
X20134Y-18377D01*
X20106Y-18264D01*
X20078Y-18208D01*
X20050Y-18180D01*
X19994Y-18152D01*
X19291Y-18349D02*
X19291Y-18742D01*
X19431Y-18124D02*
X19572Y-18546D01*
X19206Y-18546D01*
X19010Y-18208D02*
X18982Y-18180D01*
X18925Y-18152D01*
X18785Y-18152D01*
X18728Y-18180D01*
X18700Y-18208D01*
X18672Y-18264D01*
X18672Y-18321D01*
X18700Y-18405D01*
X19038Y-18742D01*
X18672Y-18742D01*
X18166Y-18152D02*
X18278Y-18152D01*
X18335Y-18180D01*
X18363Y-18208D01*
X18419Y-18293D01*
X18447Y-18405D01*
X18447Y-18630D01*
X18419Y-18686D01*
X18391Y-18714D01*
X18335Y-18742D01*
X18222Y-18742D01*
X18166Y-18714D01*
X18138Y-18686D01*
X18110Y-18630D01*
X18110Y-18489D01*
X18138Y-18433D01*
X18166Y-18405D01*
X18222Y-18377D01*
X18335Y-18377D01*
X18391Y-18405D01*
X18419Y-18433D01*
X18447Y-18489D01*
%LPC*%
G54D12*
X19685Y-19685D03*
G54D13*
X19685Y-21062D03*
M02*
