G04 (created by PCBNEW (2013-jul-07)-stable) date Sun 26 Apr 2015 15:04:57 BST*
%MOIN*%
G04 Gerber Fmt 3.4, Leading zero omitted, Abs format*
%FSLAX34Y34*%
G01*
G70*
G90*
G04 APERTURE LIST*
%ADD10C,0.00590551*%
%ADD11C,0.11811*%
%ADD12C,0.0314961*%
%ADD13C,0.035*%
%ADD14C,0.01*%
%ADD15C,0.019685*%
G04 APERTURE END LIST*
G54D10*
G54D11*
X19685Y-19685D03*
G54D12*
X19685Y-21062D03*
G54D13*
X19685Y-20620D03*
X20698Y-19461D03*
X21342Y-20852D03*
X18391Y-19494D03*
X20865Y-21273D03*
G54D14*
X19685Y-19685D02*
X19685Y-20620D01*
X21342Y-20105D02*
X21342Y-20852D01*
X20698Y-19461D02*
X21342Y-20105D01*
X20768Y-21370D02*
X20865Y-21273D01*
X19540Y-21370D02*
X20768Y-21370D01*
X18391Y-20221D02*
X19540Y-21370D01*
X18391Y-19494D02*
X18391Y-20221D01*
G54D10*
G36*
X21813Y-19726D02*
X21687Y-20299D01*
X21687Y-20105D01*
X21661Y-19973D01*
X21661Y-19973D01*
X21586Y-19861D01*
X21169Y-19443D01*
X21169Y-19368D01*
X21097Y-19195D01*
X20965Y-19063D01*
X20792Y-18991D01*
X20605Y-18991D01*
X20432Y-19063D01*
X20363Y-19132D01*
X20274Y-19097D01*
X20272Y-19100D01*
X20272Y-19095D01*
X20216Y-18950D01*
X19895Y-18803D01*
X19541Y-18790D01*
X19210Y-18913D01*
X19153Y-18950D01*
X19097Y-19095D01*
X19685Y-19682D01*
X20272Y-19095D01*
X20272Y-19100D01*
X19687Y-19685D01*
X20274Y-20272D01*
X20419Y-20216D01*
X20558Y-19912D01*
X20604Y-19932D01*
X20680Y-19932D01*
X20997Y-20248D01*
X20997Y-20532D01*
X20944Y-20585D01*
X20872Y-20758D01*
X20872Y-20803D01*
X20771Y-20803D01*
X20599Y-20874D01*
X20466Y-21007D01*
X20459Y-21025D01*
X20272Y-21025D01*
X20272Y-20274D01*
X19685Y-19687D01*
X19097Y-20274D01*
X19153Y-20419D01*
X19474Y-20566D01*
X19828Y-20580D01*
X20159Y-20457D01*
X20216Y-20419D01*
X20272Y-20274D01*
X20272Y-21025D01*
X20137Y-21025D01*
X20137Y-20973D01*
X20069Y-20806D01*
X19941Y-20679D01*
X19775Y-20610D01*
X19595Y-20610D01*
X19428Y-20678D01*
X19382Y-20724D01*
X18736Y-20078D01*
X18736Y-19813D01*
X18789Y-19760D01*
X18792Y-19752D01*
X18790Y-19828D01*
X18913Y-20159D01*
X18950Y-20216D01*
X19095Y-20272D01*
X19682Y-19685D01*
X19095Y-19097D01*
X18950Y-19153D01*
X18849Y-19373D01*
X18789Y-19228D01*
X18657Y-19095D01*
X18485Y-19023D01*
X18297Y-19023D01*
X18125Y-19095D01*
X17992Y-19227D01*
X17920Y-19400D01*
X17920Y-19587D01*
X17992Y-19760D01*
X18045Y-19813D01*
X18045Y-20221D01*
X18072Y-20353D01*
X18146Y-20465D01*
X19019Y-21338D01*
X18330Y-21338D01*
X17826Y-20768D01*
X17553Y-19975D01*
X17604Y-19137D01*
X17972Y-18382D01*
X18618Y-17811D01*
X18744Y-17747D01*
X18821Y-17731D01*
X18923Y-17663D01*
X18991Y-17561D01*
X19015Y-17440D01*
X19015Y-17401D01*
X19685Y-17401D01*
X20354Y-17401D01*
X20354Y-17440D01*
X20359Y-17468D01*
X20359Y-17496D01*
X20371Y-17527D01*
X20378Y-17561D01*
X20393Y-17584D01*
X20403Y-17610D01*
X20427Y-17635D01*
X20446Y-17663D01*
X20469Y-17679D01*
X20489Y-17699D01*
X21220Y-18209D01*
X21668Y-18909D01*
X21813Y-19726D01*
X21813Y-19726D01*
G37*
G54D15*
X21813Y-19726D02*
X21687Y-20299D01*
X21687Y-20105D01*
X21661Y-19973D01*
X21661Y-19973D01*
X21586Y-19861D01*
X21169Y-19443D01*
X21169Y-19368D01*
X21097Y-19195D01*
X20965Y-19063D01*
X20792Y-18991D01*
X20605Y-18991D01*
X20432Y-19063D01*
X20363Y-19132D01*
X20274Y-19097D01*
X20272Y-19100D01*
X20272Y-19095D01*
X20216Y-18950D01*
X19895Y-18803D01*
X19541Y-18790D01*
X19210Y-18913D01*
X19153Y-18950D01*
X19097Y-19095D01*
X19685Y-19682D01*
X20272Y-19095D01*
X20272Y-19100D01*
X19687Y-19685D01*
X20274Y-20272D01*
X20419Y-20216D01*
X20558Y-19912D01*
X20604Y-19932D01*
X20680Y-19932D01*
X20997Y-20248D01*
X20997Y-20532D01*
X20944Y-20585D01*
X20872Y-20758D01*
X20872Y-20803D01*
X20771Y-20803D01*
X20599Y-20874D01*
X20466Y-21007D01*
X20459Y-21025D01*
X20272Y-21025D01*
X20272Y-20274D01*
X19685Y-19687D01*
X19097Y-20274D01*
X19153Y-20419D01*
X19474Y-20566D01*
X19828Y-20580D01*
X20159Y-20457D01*
X20216Y-20419D01*
X20272Y-20274D01*
X20272Y-21025D01*
X20137Y-21025D01*
X20137Y-20973D01*
X20069Y-20806D01*
X19941Y-20679D01*
X19775Y-20610D01*
X19595Y-20610D01*
X19428Y-20678D01*
X19382Y-20724D01*
X18736Y-20078D01*
X18736Y-19813D01*
X18789Y-19760D01*
X18792Y-19752D01*
X18790Y-19828D01*
X18913Y-20159D01*
X18950Y-20216D01*
X19095Y-20272D01*
X19682Y-19685D01*
X19095Y-19097D01*
X18950Y-19153D01*
X18849Y-19373D01*
X18789Y-19228D01*
X18657Y-19095D01*
X18485Y-19023D01*
X18297Y-19023D01*
X18125Y-19095D01*
X17992Y-19227D01*
X17920Y-19400D01*
X17920Y-19587D01*
X17992Y-19760D01*
X18045Y-19813D01*
X18045Y-20221D01*
X18072Y-20353D01*
X18146Y-20465D01*
X19019Y-21338D01*
X18330Y-21338D01*
X17826Y-20768D01*
X17553Y-19975D01*
X17604Y-19137D01*
X17972Y-18382D01*
X18618Y-17811D01*
X18744Y-17747D01*
X18821Y-17731D01*
X18923Y-17663D01*
X18991Y-17561D01*
X19015Y-17440D01*
X19015Y-17401D01*
X19685Y-17401D01*
X20354Y-17401D01*
X20354Y-17440D01*
X20359Y-17468D01*
X20359Y-17496D01*
X20371Y-17527D01*
X20378Y-17561D01*
X20393Y-17584D01*
X20403Y-17610D01*
X20427Y-17635D01*
X20446Y-17663D01*
X20469Y-17679D01*
X20489Y-17699D01*
X21220Y-18209D01*
X21668Y-18909D01*
X21813Y-19726D01*
M02*
