G04 (created by PCBNEW (2013-jul-07)-stable) date Sun 26 Apr 2015 15:04:57 BST*
%MOIN*%
G04 Gerber Fmt 3.4, Leading zero omitted, Abs format*
%FSLAX34Y34*%
G01*
G70*
G90*
G04 APERTURE LIST*
%ADD10C,0.00590551*%
%ADD11R,0.15748X0.0590551*%
%ADD12R,0.015748X0.0393701*%
%ADD13R,0.0314961X0.0669291*%
%ADD14C,0.0314961*%
%ADD15R,0.0354331X0.023622*%
%ADD16R,0.0472X0.0137*%
%ADD17C,0.035*%
%ADD18C,0.01*%
%ADD19C,0.019685*%
G04 APERTURE END LIST*
G54D10*
G54D11*
X19685Y-17559D03*
G54D12*
X21555Y-19783D03*
X21299Y-19783D03*
X21043Y-19783D03*
X21043Y-20374D03*
X21299Y-20374D03*
X21555Y-20374D03*
G54D13*
X20354Y-21062D03*
X19015Y-21062D03*
G54D14*
X19685Y-21062D03*
G54D15*
X19901Y-19783D03*
X19901Y-20216D03*
X19311Y-20216D03*
X19311Y-19783D03*
G54D16*
X18534Y-18219D03*
X18534Y-18475D03*
X18534Y-18729D03*
X18534Y-18985D03*
X20836Y-18985D03*
X20836Y-18729D03*
X20836Y-18475D03*
X20836Y-18219D03*
G54D17*
X19685Y-20620D03*
X20698Y-19461D03*
X21342Y-20852D03*
X18391Y-19494D03*
X20865Y-21273D03*
G54D18*
X20228Y-18950D02*
X20228Y-20216D01*
X20449Y-18729D02*
X20228Y-18950D01*
X20836Y-18729D02*
X20449Y-18729D01*
X19901Y-20216D02*
X20228Y-20216D01*
X18720Y-20282D02*
X19015Y-20578D01*
X18720Y-19171D02*
X18720Y-20282D01*
X18534Y-18985D02*
X18720Y-19171D01*
X19015Y-21062D02*
X19015Y-20716D01*
X19015Y-20716D02*
X19015Y-20578D01*
X19775Y-20529D02*
X19685Y-20620D01*
X20297Y-20529D02*
X19775Y-20529D01*
X21043Y-19783D02*
X20297Y-20529D01*
X19112Y-20620D02*
X19015Y-20716D01*
X19685Y-20620D02*
X19112Y-20620D01*
X20698Y-19122D02*
X20698Y-19461D01*
X20836Y-18985D02*
X20698Y-19122D01*
X21474Y-20720D02*
X21342Y-20852D01*
X21555Y-20720D02*
X21474Y-20720D01*
X21555Y-20374D02*
X21555Y-20720D01*
X21299Y-18669D02*
X21299Y-19783D01*
X21105Y-18475D02*
X21299Y-18669D01*
X20836Y-18475D02*
X21105Y-18475D01*
X19311Y-18866D02*
X19311Y-19783D01*
X18920Y-18475D02*
X19311Y-18866D01*
X18534Y-18475D02*
X18920Y-18475D01*
X18983Y-18911D02*
X18983Y-20216D01*
X18801Y-18729D02*
X18983Y-18911D01*
X18534Y-18729D02*
X18801Y-18729D01*
X19311Y-20216D02*
X18983Y-20216D01*
X19901Y-19783D02*
X19901Y-18219D01*
X19686Y-18004D02*
X19685Y-18004D01*
X19901Y-18219D02*
X19686Y-18004D01*
X19685Y-17559D02*
X19685Y-18004D01*
X19901Y-18219D02*
X20836Y-18219D01*
X21555Y-18552D02*
X21555Y-19783D01*
X21222Y-18219D02*
X21555Y-18552D01*
X20836Y-18219D02*
X21222Y-18219D01*
X18147Y-19250D02*
X18391Y-19494D01*
X18147Y-18219D02*
X18147Y-19250D01*
X20354Y-21062D02*
X20661Y-21062D01*
X20865Y-21266D02*
X20865Y-21273D01*
X20661Y-21062D02*
X20865Y-21266D01*
X18534Y-18219D02*
X18147Y-18219D01*
G54D10*
G36*
X19025Y-21064D02*
X19017Y-21064D01*
X19017Y-21072D01*
X19014Y-21072D01*
X19014Y-21064D01*
X18634Y-21064D01*
X18559Y-21139D01*
X18559Y-21338D01*
X18559Y-21338D01*
X18330Y-21338D01*
X17826Y-20768D01*
X17553Y-19975D01*
X17604Y-19137D01*
X17802Y-18731D01*
X17802Y-19250D01*
X17828Y-19383D01*
X17903Y-19495D01*
X17920Y-19512D01*
X17920Y-19587D01*
X17992Y-19760D01*
X18124Y-19892D01*
X18297Y-19964D01*
X18484Y-19964D01*
X18638Y-19900D01*
X18638Y-20216D01*
X18664Y-20348D01*
X18736Y-20455D01*
X18689Y-20475D01*
X18605Y-20559D01*
X18559Y-20668D01*
X18559Y-20787D01*
X18559Y-20986D01*
X18634Y-21061D01*
X19014Y-21061D01*
X19014Y-21053D01*
X19017Y-21053D01*
X19017Y-21061D01*
X19025Y-21061D01*
X19025Y-21064D01*
X19025Y-21064D01*
G37*
G54D19*
X19025Y-21064D02*
X19017Y-21064D01*
X19017Y-21072D01*
X19014Y-21072D01*
X19014Y-21064D01*
X18634Y-21064D01*
X18559Y-21139D01*
X18559Y-21338D01*
X18559Y-21338D01*
X18330Y-21338D01*
X17826Y-20768D01*
X17553Y-19975D01*
X17604Y-19137D01*
X17802Y-18731D01*
X17802Y-19250D01*
X17828Y-19383D01*
X17903Y-19495D01*
X17920Y-19512D01*
X17920Y-19587D01*
X17992Y-19760D01*
X18124Y-19892D01*
X18297Y-19964D01*
X18484Y-19964D01*
X18638Y-19900D01*
X18638Y-20216D01*
X18664Y-20348D01*
X18736Y-20455D01*
X18689Y-20475D01*
X18605Y-20559D01*
X18559Y-20668D01*
X18559Y-20787D01*
X18559Y-20986D01*
X18634Y-21061D01*
X19014Y-21061D01*
X19014Y-21053D01*
X19017Y-21053D01*
X19017Y-21061D01*
X19025Y-21061D01*
X19025Y-21064D01*
M02*
