G04 (created by PCBNEW (2013-jul-07)-stable) date Sun 22 Mar 2015 20:47:42 GMT*
%MOIN*%
G04 Gerber Fmt 3.4, Leading zero omitted, Abs format*
%FSLAX34Y34*%
G01*
G70*
G90*
G04 APERTURE LIST*
%ADD10C,0.00590551*%
%ADD11C,0.012*%
%ADD12C,0.0107*%
%ADD13C,0.01*%
G04 APERTURE END LIST*
G54D10*
X22716Y-16377D02*
X23228Y-16377D01*
X23228Y-16377D02*
X23228Y-15511D01*
X23228Y-15511D02*
X22716Y-15511D01*
X22244Y-15511D02*
X22047Y-15511D01*
X22047Y-15511D02*
X22047Y-16338D01*
X22047Y-16338D02*
X22047Y-16377D01*
X22047Y-16377D02*
X22559Y-16377D01*
G54D11*
X17000Y-19500D02*
X17000Y-18500D01*
X17000Y-18500D02*
X27000Y-18500D01*
X27000Y-18500D02*
X27000Y-19500D01*
X27000Y-19500D02*
X17000Y-19500D01*
X18000Y-19500D02*
X18000Y-18500D01*
G54D10*
X21496Y-15629D02*
G75*
G03X21496Y-15787I78J-78D01*
G74*
G01*
X20236Y-15787D02*
G75*
G03X20236Y-15629I-78J78D01*
G74*
G01*
X20433Y-16417D02*
X21417Y-16417D01*
X20236Y-16181D02*
X20236Y-16417D01*
X20236Y-16417D02*
X20433Y-16417D01*
G54D12*
X19184Y-18275D02*
X19184Y-17594D01*
X19347Y-17594D01*
X19387Y-17627D01*
X19408Y-17659D01*
X19428Y-17724D01*
X19428Y-17821D01*
X19408Y-17886D01*
X19387Y-17918D01*
X19347Y-17951D01*
X19184Y-17951D01*
X19836Y-18275D02*
X19591Y-18275D01*
X19714Y-18275D02*
X19714Y-17594D01*
X19673Y-17691D01*
X19632Y-17756D01*
X19591Y-17789D01*
G54D11*
G54D13*
X23461Y-18185D02*
X23442Y-18214D01*
X23385Y-18242D01*
X23347Y-18242D01*
X23290Y-18214D01*
X23252Y-18157D01*
X23233Y-18100D01*
X23214Y-17985D01*
X23214Y-17900D01*
X23233Y-17785D01*
X23252Y-17728D01*
X23290Y-17671D01*
X23347Y-17642D01*
X23385Y-17642D01*
X23442Y-17671D01*
X23461Y-17700D01*
X23709Y-17642D02*
X23785Y-17642D01*
X23823Y-17671D01*
X23861Y-17728D01*
X23880Y-17842D01*
X23880Y-18042D01*
X23861Y-18157D01*
X23823Y-18214D01*
X23785Y-18242D01*
X23709Y-18242D01*
X23671Y-18214D01*
X23633Y-18157D01*
X23614Y-18042D01*
X23614Y-17842D01*
X23633Y-17728D01*
X23671Y-17671D01*
X23709Y-17642D01*
X24052Y-18242D02*
X24052Y-17642D01*
X24280Y-18242D01*
X24280Y-17642D01*
X24471Y-18242D02*
X24471Y-17642D01*
X24700Y-18242D01*
X24700Y-17642D01*
X24795Y-18300D02*
X25100Y-18300D01*
X25404Y-18242D02*
X25176Y-18242D01*
X25290Y-18242D02*
X25290Y-17642D01*
X25252Y-17728D01*
X25214Y-17785D01*
X25176Y-17814D01*
X25652Y-17642D02*
X25690Y-17642D01*
X25728Y-17671D01*
X25747Y-17700D01*
X25766Y-17757D01*
X25785Y-17871D01*
X25785Y-18014D01*
X25766Y-18128D01*
X25747Y-18185D01*
X25728Y-18214D01*
X25690Y-18242D01*
X25652Y-18242D01*
X25614Y-18214D01*
X25595Y-18185D01*
X25576Y-18128D01*
X25557Y-18014D01*
X25557Y-17871D01*
X25576Y-17757D01*
X25595Y-17700D01*
X25614Y-17671D01*
X25652Y-17642D01*
G54D11*
M02*
