G04 (created by PCBNEW (2013-jul-07)-stable) date Mon 04 May 2015 15:04:43 BST*
%MOIN*%
G04 Gerber Fmt 3.4, Leading zero omitted, Abs format*
%FSLAX34Y34*%
G01*
G70*
G90*
G04 APERTURE LIST*
%ADD10C,0.00590551*%
%ADD11C,0.011811*%
%ADD12C,0.012*%
%ADD13R,0.00984252X0.0275591*%
%ADD14R,0.0940945X0.0251968*%
%ADD15R,0.055X0.055*%
%ADD16C,0.055*%
G04 APERTURE END LIST*
G54D10*
G54D11*
X16943Y-13132D02*
X16661Y-13132D01*
X16661Y-12542D01*
X17055Y-12542D02*
X17393Y-12542D01*
X17224Y-13132D02*
X17224Y-12542D01*
X17927Y-13076D02*
X17899Y-13104D01*
X17814Y-13132D01*
X17758Y-13132D01*
X17674Y-13104D01*
X17618Y-13048D01*
X17589Y-12992D01*
X17561Y-12879D01*
X17561Y-12795D01*
X17589Y-12682D01*
X17618Y-12626D01*
X17674Y-12570D01*
X17758Y-12542D01*
X17814Y-12542D01*
X17899Y-12570D01*
X17927Y-12598D01*
X18124Y-12542D02*
X18489Y-12542D01*
X18293Y-12767D01*
X18377Y-12767D01*
X18433Y-12795D01*
X18461Y-12823D01*
X18489Y-12879D01*
X18489Y-13020D01*
X18461Y-13076D01*
X18433Y-13104D01*
X18377Y-13132D01*
X18208Y-13132D01*
X18152Y-13104D01*
X18124Y-13076D01*
X18714Y-12598D02*
X18742Y-12570D01*
X18799Y-12542D01*
X18939Y-12542D01*
X18996Y-12570D01*
X19024Y-12598D01*
X19052Y-12654D01*
X19052Y-12710D01*
X19024Y-12795D01*
X18686Y-13132D01*
X19052Y-13132D01*
X19614Y-13132D02*
X19277Y-13132D01*
X19446Y-13132D02*
X19446Y-12542D01*
X19389Y-12626D01*
X19333Y-12682D01*
X19277Y-12710D01*
X19839Y-12598D02*
X19867Y-12570D01*
X19924Y-12542D01*
X20064Y-12542D01*
X20120Y-12570D01*
X20149Y-12598D01*
X20177Y-12654D01*
X20177Y-12710D01*
X20149Y-12795D01*
X19811Y-13132D01*
X20177Y-13132D01*
X16802Y-13768D02*
X16886Y-13796D01*
X16915Y-13824D01*
X16943Y-13880D01*
X16943Y-13965D01*
X16915Y-14021D01*
X16886Y-14049D01*
X16830Y-14077D01*
X16605Y-14077D01*
X16605Y-13487D01*
X16802Y-13487D01*
X16858Y-13515D01*
X16886Y-13543D01*
X16915Y-13599D01*
X16915Y-13655D01*
X16886Y-13712D01*
X16858Y-13740D01*
X16802Y-13768D01*
X16605Y-13768D01*
X17196Y-14077D02*
X17196Y-13683D01*
X17196Y-13796D02*
X17224Y-13740D01*
X17252Y-13712D01*
X17308Y-13683D01*
X17365Y-13683D01*
X17786Y-14049D02*
X17730Y-14077D01*
X17618Y-14077D01*
X17561Y-14049D01*
X17533Y-13993D01*
X17533Y-13768D01*
X17561Y-13712D01*
X17618Y-13683D01*
X17730Y-13683D01*
X17786Y-13712D01*
X17814Y-13768D01*
X17814Y-13824D01*
X17533Y-13880D01*
X18321Y-14077D02*
X18321Y-13768D01*
X18293Y-13712D01*
X18236Y-13683D01*
X18124Y-13683D01*
X18068Y-13712D01*
X18321Y-14049D02*
X18264Y-14077D01*
X18124Y-14077D01*
X18068Y-14049D01*
X18039Y-13993D01*
X18039Y-13937D01*
X18068Y-13880D01*
X18124Y-13852D01*
X18264Y-13852D01*
X18321Y-13824D01*
X18602Y-14077D02*
X18602Y-13487D01*
X18658Y-13852D02*
X18827Y-14077D01*
X18827Y-13683D02*
X18602Y-13908D01*
X19164Y-14077D02*
X19108Y-14049D01*
X19080Y-14021D01*
X19052Y-13965D01*
X19052Y-13796D01*
X19080Y-13740D01*
X19108Y-13712D01*
X19164Y-13683D01*
X19249Y-13683D01*
X19305Y-13712D01*
X19333Y-13740D01*
X19361Y-13796D01*
X19361Y-13965D01*
X19333Y-14021D01*
X19305Y-14049D01*
X19249Y-14077D01*
X19164Y-14077D01*
X19867Y-13683D02*
X19867Y-14077D01*
X19614Y-13683D02*
X19614Y-13993D01*
X19642Y-14049D01*
X19699Y-14077D01*
X19783Y-14077D01*
X19839Y-14049D01*
X19867Y-14021D01*
X20064Y-13683D02*
X20289Y-13683D01*
X20149Y-13487D02*
X20149Y-13993D01*
X20177Y-14049D01*
X20233Y-14077D01*
X20289Y-14077D01*
X16268Y-14488D02*
X16296Y-14460D01*
X16352Y-14431D01*
X16493Y-14431D01*
X16549Y-14460D01*
X16577Y-14488D01*
X16605Y-14544D01*
X16605Y-14600D01*
X16577Y-14685D01*
X16240Y-15022D01*
X16605Y-15022D01*
X16971Y-14431D02*
X17027Y-14431D01*
X17083Y-14460D01*
X17111Y-14488D01*
X17140Y-14544D01*
X17168Y-14656D01*
X17168Y-14797D01*
X17140Y-14910D01*
X17111Y-14966D01*
X17083Y-14994D01*
X17027Y-15022D01*
X16971Y-15022D01*
X16915Y-14994D01*
X16886Y-14966D01*
X16858Y-14910D01*
X16830Y-14797D01*
X16830Y-14656D01*
X16858Y-14544D01*
X16886Y-14488D01*
X16915Y-14460D01*
X16971Y-14431D01*
X17730Y-15022D02*
X17393Y-15022D01*
X17561Y-15022D02*
X17561Y-14431D01*
X17505Y-14516D01*
X17449Y-14572D01*
X17393Y-14600D01*
X18264Y-14431D02*
X17983Y-14431D01*
X17955Y-14713D01*
X17983Y-14685D01*
X18039Y-14656D01*
X18180Y-14656D01*
X18236Y-14685D01*
X18264Y-14713D01*
X18293Y-14769D01*
X18293Y-14910D01*
X18264Y-14966D01*
X18236Y-14994D01*
X18180Y-15022D01*
X18039Y-15022D01*
X17983Y-14994D01*
X17955Y-14966D01*
X18658Y-14431D02*
X18714Y-14431D01*
X18771Y-14460D01*
X18799Y-14488D01*
X18827Y-14544D01*
X18855Y-14656D01*
X18855Y-14797D01*
X18827Y-14910D01*
X18799Y-14966D01*
X18771Y-14994D01*
X18714Y-15022D01*
X18658Y-15022D01*
X18602Y-14994D01*
X18574Y-14966D01*
X18546Y-14910D01*
X18517Y-14797D01*
X18517Y-14656D01*
X18546Y-14544D01*
X18574Y-14488D01*
X18602Y-14460D01*
X18658Y-14431D01*
X19389Y-14431D02*
X19108Y-14431D01*
X19080Y-14713D01*
X19108Y-14685D01*
X19164Y-14656D01*
X19305Y-14656D01*
X19361Y-14685D01*
X19389Y-14713D01*
X19417Y-14769D01*
X19417Y-14910D01*
X19389Y-14966D01*
X19361Y-14994D01*
X19305Y-15022D01*
X19164Y-15022D01*
X19108Y-14994D01*
X19080Y-14966D01*
X19783Y-14431D02*
X19839Y-14431D01*
X19895Y-14460D01*
X19924Y-14488D01*
X19952Y-14544D01*
X19980Y-14656D01*
X19980Y-14797D01*
X19952Y-14910D01*
X19924Y-14966D01*
X19895Y-14994D01*
X19839Y-15022D01*
X19783Y-15022D01*
X19727Y-14994D01*
X19699Y-14966D01*
X19670Y-14910D01*
X19642Y-14797D01*
X19642Y-14656D01*
X19670Y-14544D01*
X19699Y-14488D01*
X19727Y-14460D01*
X19783Y-14431D01*
X20486Y-14628D02*
X20486Y-15022D01*
X20345Y-14403D02*
X20205Y-14825D01*
X20570Y-14825D01*
G54D10*
X21023Y-14035D02*
X21023Y-14311D01*
X21181Y-14311D02*
X21062Y-14311D01*
X21062Y-14035D02*
X21062Y-14271D01*
X21181Y-14035D02*
X21181Y-14311D01*
X21141Y-14035D02*
X21141Y-14271D01*
X21102Y-14035D02*
X21102Y-14311D01*
X21220Y-12972D02*
X22559Y-12972D01*
X22559Y-12972D02*
X22559Y-14311D01*
X22559Y-14311D02*
X21220Y-14311D01*
X21220Y-14311D02*
X21220Y-12972D01*
G54D12*
X16125Y-16208D02*
X16125Y-16208D01*
X16125Y-16208D02*
X16125Y-15208D01*
X16125Y-15208D02*
X26125Y-15208D01*
X26125Y-16208D02*
X16125Y-16208D01*
X17125Y-16208D02*
X17125Y-15208D01*
X26125Y-15208D02*
X27875Y-15208D01*
X27875Y-15208D02*
X28125Y-15208D01*
X28125Y-15208D02*
X28125Y-16208D01*
X28125Y-16208D02*
X26125Y-16208D01*
%LPC*%
G54D13*
X21419Y-14005D03*
X21596Y-14005D03*
X21773Y-14005D03*
X22005Y-14005D03*
X22183Y-14005D03*
X22360Y-14005D03*
X22360Y-13277D03*
X22183Y-13277D03*
X22005Y-13277D03*
X21773Y-13277D03*
X21596Y-13277D03*
X21419Y-13277D03*
G54D14*
X21889Y-13641D03*
G54D15*
X16625Y-15708D03*
G54D16*
X17625Y-15708D03*
X18625Y-15708D03*
X19625Y-15708D03*
X20625Y-15708D03*
X21625Y-15708D03*
X22625Y-15708D03*
X23625Y-15708D03*
X24625Y-15708D03*
X25625Y-15708D03*
X26625Y-15708D03*
X27625Y-15708D03*
M02*
